<?xml version="1.0" encoding="iso-8859-1"?>
<!-- Uploaded to: SVG Repo, www.svgrepo.com, Generator: SVG Repo Mixer Tools -->
<svg fill="#000000" height="40px" width="35px" version="1.1" id="Layer_1" xmlns="http://www.w3.org/2000/svg" xmlns:xlink="http://www.w3.org/1999/xlink" 
	 viewBox="0 0 512 512" xml:space="preserve">
<g>
	<g>
		<g>
			<path d="M348.817,0H42.667v512h426.667V96.413L348.817,0z M426.667,469.333H85.333V42.667H333.85l92.817,74.253V469.333z"/>
			<path d="M256,192c-23.573,0-42.667,19.093-42.667,42.667c0,3.377,0.404,6.658,1.145,9.808l-43.811,32.859V192
				c0-11.782-9.551-21.333-21.333-21.333C137.551,170.667,128,180.218,128,192v192c0,11.782,9.551,21.333,21.333,21.333h192
				c11.782,0,21.333-9.551,21.333-21.333c0-11.782-9.551-21.333-21.333-21.333H170.667v-32l73.386-55.04
				c3.792,1.103,7.798,1.706,11.947,1.706c12.427,0,23.605-5.31,31.401-13.781l65.725,32.862
				c10.538,5.269,23.353,0.998,28.622-9.541s0.998-23.353-9.541-28.622l-76.049-38.024C290.243,203.767,274.504,192,256,192z"/>
		</g>
	</g>
</g>
</svg>