<?xml version="1.0" encoding="iso-8859-1"?>
<!-- Uploaded to: SVG Repo, www.svgrepo.com, Generator: SVG Repo Mixer Tools -->
<svg fill="#000000" height="800px" width="800px" version="1.1" id="Layer_1" xmlns="http://www.w3.org/2000/svg" xmlns:xlink="http://www.w3.org/1999/xlink" 
	 viewBox="0 0 512 512" xml:space="preserve">
<g>
	<g>
		<path d="M236.865,0v59.225c6.53,2.782,12.921,5.921,19.134,9.451c5.156-2.929,10.428-5.601,15.804-8.016V0H236.865z"/>
	</g>
</g>
<g>
	<g>
		<path d="M312.688,83.523c-20.878,5.051-40.103,14.332-56.687,26.926c-15.609-11.853-33.556-20.779-53.019-26.002l-42.423,70.463
			l70.122-8.329l27.729,46.864l24.564-46.942l71.394,8.481L312.688,83.523z"/>
	</g>
</g>
<g>
	<g>
		<path d="M502.851,230.98c-1.109-83.362-69.237-150.884-152.234-151.773l69.258,118.741l-117.109-13.911l-42.484,81.183
			l-48.079-81.261l-118.38,14.063l71.526-118.803c-0.275-0.005-0.546-0.022-0.821-0.024c-0.495-0.005-0.991-0.007-1.485-0.007
			C79.287,79.185,10.267,147.056,9.149,230.978c-0.594,44.594,17.782,84.902,47.572,113.368
			c24.755,23.657,45.998,50.849,61.106,81.577C142.893,476.909,195.346,512,255.999,512c60.654,0,113.105-35.091,138.172-86.077
			c15.107-30.728,36.352-57.92,61.107-81.577C485.067,315.88,503.444,275.573,502.851,230.98z M204.309,338.148h-36.361V303.21
			h36.361V338.148z M274.18,435.97h-36.361v-34.938h36.361V435.97z M344.053,338.148h-36.361V303.21h36.361V338.148z"/>
	</g>
</g>
</svg>